<svg xmlns="http://www.w3.org/2000/svg"  viewBox="0 0 48 48" width="50px" height="50px">
     <path d="M23.583,44.939l-13.592-4c-0.593-0.175-1.019-0.696-1.071-1.311l-2.912-34	
     C5.933,4.753,6.625,3.999,7.503,3.999h33.005c0.877,0,1.569,0.753,1.493,1.629l-2.912,
     34c-0.052,0.615-0.477,1.136-1.071,1.311	l-13.589,4C24.154,45.021,23.859,45.021,23.583,
     44.939z M24.422,34.939l6.504-1.912c0.593-0.175,1.019-0.695,1.071-1.311	l1.468-17.088c0.076-0.876
     -0.616-1.629-1.493-1.629H16.041c-0.828,0-1.5,0.673-1.5,1.5c0,0.828,0.672,1.5,1.5,1.5h14.296l
     -0.431,5	H16.811c-0.828,0-1.5,0.673-1.5,1.5c0,0.828,0.672,1.5,1.5,1.5h12.837l-0.553,6.439l
     -5.096,1.499l-5.089-1.499l-0.263-3.065	c-0.069-0.825-0.797-1.437-1.621-1.367c-0.825,0.069
     -1.437,0.797-1.367,1.621l0.349,4.088c0.052,0.616,0.477,1.137,1.071,1.312	l6.496,1.912H24.422z"/>
</svg>