<svg xmlns="http://www.w3.org/2000/svg" xmlns:xlink="http://www.w3.org/1999/xlink" viewBox="0,0,256,256" width="50px" height="50px" fill-rule="nonzero"><g fill="#ced0ce" fill-rule="nonzero" stroke="none" stroke-width="1" stroke-linecap="butt" stroke-linejoin="miter" stroke-miterlimit="10" stroke-dasharray="" stroke-dashoffset="0" font-family="none" font-weight="none" font-size="none" text-anchor="none" style="mix-blend-mode: normal"><g transform="scale(2.56,2.56)"><path d="M38.5,11.64844c-7.44436,0 -13.5,6.05564 -13.5,13.5c0,5.65715 3.50514,10.49484 8.45117,12.5c-4.94605,2.00515 -8.45117,6.84283 -8.45117,12.5c0,5.72473 3.58711,10.61625 8.62695,12.57617c-5.06048,2.11121 -8.62695,7.10657 -8.62695,12.92383c0,7.72039 6.27961,14 14,14c7.72039,0 14,-6.27961 14,-14v-13v-11.5v-12.5h12.5c7.44446,0 13.5,-6.05656 13.5,-13.5c0,-7.44436 -6.05564,-13.5 -13.5,-13.5h-13.5zM65.5,38.64844c-6.89172,0 -12.5,5.60829 -12.5,12.5c0,6.89171 5.60828,12.5 12.5,12.5c6.89172,0 12.5,-5.60829 12.5,-12.5c0,-6.89171 -5.60828,-12.5 -12.5,-12.5zM38.5,13.64844h12.5v23h-12.5c-6.36364,0 -11.5,-5.13636 -11.5,-11.5c0,-6.36364 5.13636,-11.5 11.5,-11.5zM53,13.64844h12.5c6.36364,0 11.5,5.13636 11.5,11.5c0,6.36256 -5.13646,11.5 -11.5,11.5h-12.5zM56.85938,16.64844c-0.18032,-0.00255 -0.34804,0.09219 -0.43894,0.24794c-0.0909,0.15575 -0.0909,0.34838 0,0.50413c0.0909,0.15575 0.25863,0.25049 0.43894,0.24794h5.64063c0.18032,0.00255 0.34804,-0.09219 0.43894,-0.24794c0.0909,-0.15575 0.0909,-0.34838 0,-0.50413c-0.0909,-0.15575 -0.25863,-0.25049 -0.43894,-0.24794zM65.5,16.64844c-0.18032,-0.00255 -0.34804,0.09219 -0.43894,0.24794c-0.0909,0.15575 -0.0909,0.34838 0,0.50413c0.0909,0.15575 0.25863,0.25049 0.43894,0.24794c4.14774,0 7.5,3.35226 7.5,7.5c-0.00255,0.18032 0.09219,0.34804 0.24794,0.43894c0.15575,0.0909 0.34838,0.0909 0.50413,0c0.15575,-0.0909 0.25049,-0.25863 0.24794,-0.43894c0,-4.68826 -3.81174,-8.5 -8.5,-8.5zM38.5,38.64844h12.5v23h-12h-0.5c-6.36364,0 -11.5,-5.13636 -11.5,-11.5c0,-6.36364 5.13636,-11.5 11.5,-11.5zM65.5,40.64844c5.81084,0 10.5,4.68916 10.5,10.5c0,5.81083 -4.68916,10.5 -10.5,10.5c-5.81084,0 -10.5,-4.68917 -10.5,-10.5c0,-5.81084 4.68916,-10.5 10.5,-10.5zM65.5,43.64844c-2.30256,0 -4.3689,1.04311 -5.74414,2.67969c-0.12201,0.1359 -0.16022,0.3275 -0.09969,0.4998c0.06053,0.1723 0.21018,0.29791 0.39038,0.32764c0.18019,0.02973 0.36226,-0.04114 0.47494,-0.18486c1.19276,-1.41942 2.97707,-2.32227 4.97852,-2.32227c0.18032,0.00255 0.34804,-0.09219 0.43894,-0.24794c0.0909,-0.15575 0.0909,-0.34838 0,-0.50413c-0.0909,-0.15575 -0.25863,-0.25049 -0.43894,-0.24794zM58.49219,50.64258c-0.27537,0.00431 -0.49542,0.23047 -0.49219,0.50586c0,1.14911 0.25967,2.24064 0.72266,3.21484c0.07258,0.16802 0.23115,0.28297 0.41341,0.29967c0.18226,0.01671 0.35909,-0.0675 0.461,-0.21952c0.10191,-0.15203 0.11263,-0.34758 0.02793,-0.50983c-0.40101,-0.8438 -0.625,-1.78627 -0.625,-2.78516c0.00158,-0.13498 -0.05147,-0.26487 -0.14711,-0.36014c-0.09564,-0.09527 -0.22573,-0.14782 -0.3607,-0.14572zM72.49219,50.64258c-0.27537,0.00431 -0.49542,0.23047 -0.49219,0.50586c0,0.64656 -0.09419,1.26924 -0.26953,1.85742c-0.05095,0.17131 -0.00664,0.35679 0.11625,0.48657c0.12289,0.12978 0.30568,0.18413 0.47951,0.14258c0.17383,-0.04155 0.31229,-0.17268 0.36322,-0.344c0.20266,-0.67982 0.31055,-1.39914 0.31055,-2.14258c0.00158,-0.13498 -0.05147,-0.26487 -0.14711,-0.36014c-0.09564,-0.09527 -0.22573,-0.14782 -0.3607,-0.14572zM70.85938,55.14453c-0.14785,0.00188 -0.28729,0.0691 -0.38086,0.18359c-1.19276,1.41942 -2.97707,2.32031 -4.97852,2.32031c-0.99889,0 -1.94136,-0.22399 -2.78516,-0.625c-0.16225,-0.0847 -0.35781,-0.07398 -0.50984,0.02793c-0.15203,0.10191 -0.23623,0.27874 -0.21953,0.461c0.01671,0.18226 0.13165,0.34084 0.29968,0.41341c0.9742,0.46299 2.06574,0.72266 3.21484,0.72266c2.30256,0 4.3689,-1.04115 5.74414,-2.67773c0.12816,-0.14894 0.15721,-0.35914 0.07426,-0.53727c-0.08296,-0.17812 -0.26254,-0.29115 -0.45902,-0.28891zM39,63.64844h12v12c0,6.63961 -5.36039,12 -12,12c-6.63961,0 -12,-5.36039 -12,-12c0,-6.63961 5.36039,-12 12,-12zM47.49219,66.64258c-0.27537,0.00431 -0.49542,0.23047 -0.49219,0.50586v2c-0.00255,0.18032 0.09219,0.34804 0.24794,0.43894c0.15575,0.0909 0.34838,0.0909 0.50413,0c0.15575,-0.0909 0.25049,-0.25863 0.24794,-0.43894v-2c0.00158,-0.13498 -0.05147,-0.26487 -0.14711,-0.36014c-0.09564,-0.09527 -0.22573,-0.14782 -0.3607,-0.14572zM47.49219,71.64258c-0.27537,0.00431 -0.49542,0.23047 -0.49219,0.50586v3.5c0,0.4827 -0.04319,0.95417 -0.125,1.41211c-0.03488,0.17734 0.02864,0.3597 0.16616,0.47699c0.13752,0.11728 0.32762,0.15123 0.49723,0.08879c0.16961,-0.06244 0.29233,-0.21154 0.32098,-0.39c0.09219,-0.51606 0.14063,-1.04659 0.14063,-1.58789v-3.5c0.00158,-0.13498 -0.05147,-0.26487 -0.14711,-0.36014c-0.09564,-0.09527 -0.22573,-0.14782 -0.3607,-0.14572zM30.49219,75.14258c-0.27537,0.00431 -0.49542,0.23047 -0.49219,0.50586c0,4.96427 4.03573,9 9,9c1.31985,0 2.57687,-0.28528 3.70703,-0.79688c0.16611,-0.07175 0.28049,-0.22764 0.29911,-0.40762c0.01861,-0.17998 -0.06145,-0.35597 -0.20936,-0.4602c-0.14791,-0.10422 -0.34058,-0.12042 -0.50381,-0.04234c-1.00384,0.45441 -2.11682,0.70703 -3.29297,0.70703c-4.42373,0 -8,-3.57627 -8,-8c0.00158,-0.13498 -0.05147,-0.26487 -0.14711,-0.36014c-0.09564,-0.09527 -0.22573,-0.14782 -0.3607,-0.14572zM46.1875,79.64258c-0.16533,0.00945 -0.31526,0.10014 -0.40039,0.24219c-0.31977,0.51163 -0.69611,0.98524 -1.12109,1.41211c-0.13023,0.12578 -0.18231,0.31213 -0.13614,0.4872c0.04617,0.17507 0.18336,0.31151 0.35868,0.35671c0.17532,0.0452 0.36138,-0.0079 0.48644,-0.13883c0.47702,-0.47913 0.90149,-1.01152 1.26172,-1.58789c0.09756,-0.15059 0.10696,-0.34192 0.02462,-0.50134c-0.08234,-0.15943 -0.24378,-0.26252 -0.42306,-0.27014c-0.01692,-0.00086 -0.03386,-0.00086 -0.05078,0z"></path></g></g></svg>