<svg xmlns="http://www.w3.org/2000/svg" xmlns:xlink="http://www.w3.org/1999/xlink" viewBox="0,0,256,256" width="50px" height="50px" fill-rule="nonzero"><g fill="#ced0ce" fill-rule="nonzero" stroke="none" stroke-width="1" stroke-linecap="butt" stroke-linejoin="miter" stroke-miterlimit="10" stroke-dasharray="" stroke-dashoffset="0" font-family="none" font-weight="none" font-size="none" text-anchor="none" style="mix-blend-mode: normal"><g transform="scale(5.33333,5.33333)"><path d="M44.999,10.87v26.21c0,1.03 -0.59,1.97 -1.51,2.42c-2.68,1.29 -8,3.85 -8.35,4.01c-0.13,0.07 -0.38,0.2 -0.67,0.31c0.35,-0.6 0.53,-1.3 0.53,-2.02v-35.6c0,-0.75 -0.2,-1.45 -0.56,-2.06c0.09,0.04 0.17,0.08 0.24,0.11c0.2,0.1 5.98,2.86 8.8,4.2c0.93,0.45 1.52,1.39 1.52,2.42zM7.499,26.03c1.6,1.46 3.43,3.13 5.34,4.86l-4.6,3.5c-0.77,0.57 -1.78,0.5 -2.56,-0.05c-0.5,-0.36 -1.89,-1.65 -1.89,-1.65c-1.01,-0.81 -1.06,-2.32 -0.11,-3.19c0,0 1.5,-1.37 3.82,-3.47zM31.999,6.2v10.11l-7.63,5.8l-6.85,-5.21c4.98,-4.53 10.01,-9.11 12.65,-11.52c0.7,-0.64 1.83,-0.13 1.83,0.82zM32,41.798v-10.108l-23.76,-18.08c-0.77,-0.57 -1.78,-0.5 -2.56,0.05c-0.5,0.36 -1.89,1.65 -1.89,1.65c-1.01,0.81 -1.06,2.32 -0.11,3.19c0,0 20.145,18.338 26.485,24.116c0.706,0.644 1.835,0.137 1.835,-0.818z"></path></g></g></svg>