<svg xmlns="http://www.w3.org/2000/svg"  viewBox="0 0 48 48" width="50px" height="50px"><path d="M44.999 10.87v26.21c0 1.03-.59 1.97-1.51 2.42-2.68 1.29-8 3.85-8.35 4.01-.13.07-.38.2-.67.31.35-.6.53-1.3.53-2.02V6.2c0-.75-.2-1.45-.56-2.06.09.04.17.08.24.11.2.1 5.98 2.86 8.8 4.2C44.409 8.9 44.999 9.84 44.999 10.87zM7.499 26.03c1.6 1.46 3.43 3.13 5.34 4.86l-4.6 3.5c-.77.57-1.78.5-2.56-.05-.5-.36-1.89-1.65-1.89-1.65-1.01-.81-1.06-2.32-.11-3.19C3.679 29.5 5.179 28.13 7.499 26.03zM31.999 6.2v10.11l-7.63 5.8-6.85-5.21c4.98-4.53 10.01-9.11 12.65-11.52C30.869 4.74 31.999 5.25 31.999 6.2zM32 41.798V31.69L8.24 13.61c-.77-.57-1.78-.5-2.56.05-.5.36-1.89 1.65-1.89 1.65-1.01.81-1.06 2.32-.11 3.19 0 0 20.145 18.338 26.485 24.116C30.871 43.26 32 42.753 32 41.798z"/></svg>